<svg width="200" height="200" fill="none" xmlns="http://www.w3.org/2000/svg"><g clip-path="url(#a)"><path d="M83.474 98.423v-.143c0-14.919 11.473-26.642 26.979-26.642 10.461 0 17.188 4.378 21.721 10.682l-10.675 8.258c-2.851-3.651-6.3-5.99-11.188-5.99-7.126 0-12.214 6.076-12.214 13.535v.143c0 7.687 5.045 13.692 12.214 13.692 5.33 0 8.48-2.496 11.544-6.219l10.689 7.616c-4.817 6.661-11.33 11.567-22.661 11.567a25.98 25.98 0 0 1-18.824-7.641 26.016 26.016 0 0 1-7.585-18.858Z" fill="#0B2471"/><path d="m162.074 37.579-7.354 7.473 7.354-7.473Z" fill="#0085FF"/><path d="M62.709 47.948a63.576 63.576 0 0 0-19.089 44.72A63.576 63.576 0 0 0 61.711 137.8l10.974-10.839a48.939 48.939 0 0 1-14.21-33.812 48.94 48.94 0 0 1 13.27-34.192 47.001 47.001 0 0 1 33.905-14.676 49.506 49.506 0 0 1 35.63 14.263l10.376-10.398a63.484 63.484 0 0 0-44.433-18.285 63.483 63.483 0 0 0-44.514 18.086Z" fill="#0096FF"/><path d="M107.147 186.408h-1.069a92.905 92.905 0 0 1-65.194-27.728 93.04 93.04 0 0 1-26.732-65.649H0a107.264 107.264 0 0 0 31.473 75.654A107.108 107.108 0 0 0 107.147 200h.328v-13.606l-.328.014Z" fill="#82DD22"/><path d="m151.642 48.09 3.035-3.095-3.05 3.081.015.014Z" fill="#00D4AC"/><path d="M52.405 147.885a77.123 77.123 0 0 0 54.742 22.606h.242v15.903a92.204 92.204 0 0 0 65.06-26.828l-20.736-20.994a62.972 62.972 0 0 1-44.581 18.327h-.726a63.055 63.055 0 0 1-44.624-19.055l-9.72 9.684.343.357Zm-2.11-109.151a76.29 76.29 0 0 1 24.989-17.592 76.244 76.244 0 0 1 29.881-6.369 79.137 79.137 0 0 1 56.866 22.749l10.304-10.469a92.943 92.943 0 0 0-47.373-25.019 92.902 92.902 0 0 0-53.303 5.292A92.979 92.979 0 0 0 30.121 41.17a93.081 93.081 0 0 0-15.983 51.162v.714h14.879a78.033 78.033 0 0 1 21.278-54.312Z" fill="#14AA8C"/><path d="M105.166 14.773a76.245 76.245 0 0 0-29.882 6.37 76.291 76.291 0 0 0-24.989 17.591 78.033 78.033 0 0 0-21.264 54.297v.656a78.115 78.115 0 0 0 22.804 54.198l.256-.257 9.72-9.684a63.55 63.55 0 0 1-18.529-44.946A63.55 63.55 0 0 1 61.94 48.105a63.455 63.455 0 0 1 44.914-18.543 63.456 63.456 0 0 1 44.86 18.67l3.05-3.08 7.354-7.473a79.176 79.176 0 0 0-26.168-17.2 79.13 79.13 0 0 0-30.783-5.706Z" fill="#50BEFF"/><path d="M106.078 186.394h1.354v-15.903h-.242a77.124 77.124 0 0 1-54.742-22.606l-.342-.357-.257.257a78.115 78.115 0 0 1-22.803-54.126v-.656l-14.893.028a93.042 93.042 0 0 0 26.741 65.631 92.903 92.903 0 0 0 65.184 27.717v.015Z" fill="#AFE61E"/></g><defs><clipPath id="a"><path fill="#fff" d="M0 0h200v200H0z"/></clipPath></defs></svg>